<?xml version="1.0" encoding="utf-8"?>
<!-- Generator: Adobe Illustrator 23.0.1, SVG Export Plug-In . SVG Version: 6.00 Build 0)  -->
<svg version="1.1" id="separator" xmlns="http://www.w3.org/2000/svg" xmlns:xlink="http://www.w3.org/1999/xlink" x="0px" y="0px"
	 viewBox="0 0 120 10" style="enable-background:new 0 0 120 10;" xml:space="preserve">
<style type="text/css">
	.st2{fill:#EFCC68;}
</style>
<path class="st2" d="M111.7,2.8h7.7c0.3,0,0.6-0.3,0.6-0.6v0c0-0.3-0.3-0.6-0.6-0.6H76.3c-0.6,0-1.2,0.2-1.7,0.5l-3.1,2.1
	c-0.3,0.2-0.5,0.3-0.8,0.3H65C64.7,1.9,62.5,0,60,0s-4.7,1.9-5,4.4h-5.7c-0.3,0-0.6-0.1-0.8-0.3L45.4,2c-0.5-0.3-1.1-0.5-1.7-0.5
	H0.6C0.3,1.5,0,1.8,0,2.1v0c0,0.3,0.3,0.6,0.6,0.6h7.7c0.3,0,0.6,0.1,0.8,0.3l2,1.4H4.6C4.3,4.4,4,4.6,4,5c0,0.3,0.3,0.6,0.6,0.6
	h6.6L9.2,7C8.9,7.2,8.6,7.3,8.3,7.3H0.6C0.3,7.3,0,7.5,0,7.9v0c0,0.3,0.3,0.6,0.6,0.6h43.1c0.6,0,1.2-0.2,1.7-0.5l3.1-2.1
	c0.3-0.2,0.5-0.3,0.8-0.3H55c0.3,2.5,2.4,4.4,5,4.4s4.7-1.9,5-4.4h5.7c0.3,0,0.6,0.1,0.8,0.3L74.6,8c0.5,0.3,1.1,0.5,1.7,0.5h43.1
	c0.3,0,0.6-0.3,0.6-0.6v0c0-0.3-0.3-0.6-0.6-0.6h-7.7c-0.3,0-0.6-0.1-0.8-0.3l-2-1.4h6.6c0.3,0,0.6-0.3,0.6-0.6
	c0-0.4-0.3-0.6-0.6-0.6h-6.6l2-1.4C111.1,2.8,111.4,2.8,111.7,2.8z M16.2,7c-0.3,0.2-0.5,0.3-0.8,0.3h-3.9l2-1.4
	c0.3-0.2,0.5-0.3,0.8-0.3h3.9L16.2,7z M14.3,4.4c-0.3,0-0.6-0.1-0.8-0.3l-2-1.4h3.9c0.3,0,0.6,0.1,0.8,0.3l2,1.4H14.3z M23.2,7
	c-0.3,0.2-0.5,0.3-0.8,0.3h-3.9l2-1.4c0.3-0.2,0.5-0.3,0.8-0.3h3.9L23.2,7z M21.3,4.4c-0.3,0-0.6-0.1-0.8-0.3l-2-1.4h3.9
	c0.3,0,0.6,0.1,0.8,0.3l2,1.4H21.3z M30.2,7c-0.3,0.2-0.5,0.3-0.8,0.3h-3.9l2-1.4c0.3-0.2,0.5-0.3,0.8-0.3h3.9L30.2,7z M28.3,4.4
	c-0.3,0-0.6-0.1-0.8-0.3l-2-1.4h3.9c0.3,0,0.6,0.1,0.8,0.3l2,1.4H28.3z M37.2,7c-0.3,0.2-0.5,0.3-0.8,0.3h-3.9l2-1.4
	c0.3-0.2,0.5-0.3,0.8-0.3h3.9L37.2,7z M35.3,4.4c-0.3,0-0.6-0.1-0.8-0.3l-2-1.4h3.9c0.3,0,0.6,0.1,0.8,0.3l2,1.4H35.3z M44.2,7
	c-0.3,0.2-0.5,0.3-0.8,0.3h-3.9l2-1.4l0.4-0.3h4.3L44.2,7z M42.3,4.4c-0.3,0-0.6-0.1-0.8-0.3l-2-1.4h3.9c0.3,0,0.6,0.1,0.8,0.3
	l2,1.4H42.3z M60,7.8c-1.5,0-2.8-1.2-2.8-2.8c0-1.5,1.2-2.8,2.8-2.8s2.8,1.2,2.8,2.8C62.8,6.5,61.5,7.8,60,7.8z M76.7,7.3
	c-0.3,0-0.6-0.1-0.8-0.3l-2-1.4h4.3l0.4,0.3l2,1.4H76.7z M78.5,4.1c-0.3,0.2-0.5,0.3-0.8,0.3h-3.9l2-1.4c0.3-0.2,0.5-0.3,0.8-0.3
	h3.9L78.5,4.1z M83.7,7.3c-0.3,0-0.6-0.1-0.8-0.3l-2-1.4h3.9c0.3,0,0.6,0.1,0.8,0.3l2,1.4H83.7z M85.5,4.1c-0.3,0.2-0.5,0.3-0.8,0.3
	h-3.9l2-1.4c0.3-0.2,0.5-0.3,0.8-0.3h3.9L85.5,4.1z M90.7,7.3c-0.3,0-0.6-0.1-0.8-0.3l-2-1.4h3.9c0.3,0,0.6,0.1,0.8,0.3l2,1.4H90.7z
	 M92.5,4.1c-0.3,0.2-0.5,0.3-0.8,0.3h-3.9l2-1.4c0.3-0.2,0.5-0.3,0.8-0.3h3.9L92.5,4.1z M97.7,7.3c-0.3,0-0.6-0.1-0.8-0.3l-2-1.4
	h3.9c0.3,0,0.6,0.1,0.8,0.3l2,1.4H97.7z M99.5,4.1c-0.3,0.2-0.5,0.3-0.8,0.3h-3.9l2-1.4c0.3-0.2,0.5-0.3,0.8-0.3h3.9L99.5,4.1z
	 M104.7,7.3c-0.3,0-0.6-0.1-0.8-0.3l-2-1.4h3.9c0.3,0,0.6,0.1,0.8,0.3l2,1.4H104.7z M106.5,4.1c-0.3,0.2-0.5,0.3-0.8,0.3h-3.9l2-1.4
	c0.3-0.2,0.5-0.3,0.8-0.3h3.9L106.5,4.1z"/>
</svg>
